<?xml version="1.0" standalone="no"?>
<!DOCTYPE svg >
<svg version="1.0" xmlns="http://www.w3.org/2000/svg"
 viewBox="0 0 200 250">
 <!-- viewBox="0 0 1011.1 344.04"> -->

<g transform="translate(-180.00000,1170.000000) scale(0.12000, -0.111)"
fill="#000000" stroke="none">
<path fill="#641E8C" d="M1720 10327 c-109 -58 -106 -216 6 -263 l34 -14 0 -80 c0 -67 -3 -80
-16 -80 -24 0 -72 -38 -89 -70 -8 -16 -15 -47 -15 -70 0 -86 59 -144 148 -146
l53 -1 133 -132 c120 -119 132 -135 128 -162 -6 -40 14 -83 54 -119 40 -35 90
-46 138 -30 37 12 96 71 96 95 0 12 17 15 89 15 85 0 89 -1 95 -24 8 -34 69
-84 111 -92 53 -10 120 19 150 64 43 64 26 159 -36 205 -37 27 -108 33 -146
13 -35 -18 -83 -71 -83 -92 0 -11 -19 -14 -88 -14 l-88 0 -13 35 c-30 84 -160
113 -223 50 l-25 -24 -122 124 -123 123 21 29 c19 27 26 59 23 115 -2 33 -55
96 -88 104 -23 6 -24 10 -24 83 l0 78 37 24 c55 36 76 71 75 124 0 61 -28 105
-82 133 -56 28 -76 28 -130 -1z m109 -52 c54 -27 61 -108 13 -145 -90 -72
-200 60 -111 134 35 30 58 32 98 11z m-14 -205 c-3 -5 -17 -10 -30 -10 -13 0
-27 5 -30 10 -4 6 8 10 30 10 22 0 34 -4 30 -10z m16 -240 c52 -28 58 -113 11
-150 -29 -24 -63 -25 -101 -5 -32 16 -41 33 -41 78 1 66 73 108 131 77z m24
-189 c-3 -6 -14 -11 -23 -11 -13 0 -13 2 4 14 21 15 30 14 19 -3z m292 -281
c-12 -21 -22 -18 -36 9 -8 15 -6 17 19 13 25 -4 27 -6 17 -22z m164 1 c20 -20
29 -39 29 -61 0 -43 -47 -90 -90 -90 -43 0 -90 47 -90 90 0 43 47 90 90 90 22
0 41 -9 61 -29z m464 4 c38 -37 35 -95 -6 -129 -35 -30 -58 -32 -99 -11 -35
18 -55 71 -41 108 22 58 103 76 146 32z"/>
<path  d="M1744 10234 c-18 -14 -18 -15 5 -4 22 12 44 10 86 -4 13 -5 12 -2 -5
8 -32 20 -61 20 -86 0z"/>
<path  d="M1740 9786 c-10 -13 -7 -13 19 -3 24 9 39 9 64 -1 29 -10 30 -10 13
3 -25 19 -80 19 -96 1z"/>
<path d="M2200 9336 c-10 -13 -7 -13 19 -3 24 9 39 9 64 -1 29 -10 30 -10 13
3 -25 19 -80 19 -96 1z"/>
<path d="M2664 9334 c-18 -15 -18 -15 3 -5 12 6 34 11 48 11 14 0 36 -5 48
-11 21 -10 21 -10 3 5 -11 9 -34 16 -51 16 -17 0 -40 -7 -51 -16z"/>
<path fill="#641E8C" d="M2195 10336 c-86 -39 -121 -144 -71 -217 42 -62 127 -87 187 -55 26
13 29 12 154 -114 77 -77 123 -130 116 -134 -6 -4 -11 -34 -11 -66 0 -52 4
-64 30 -94 91 -103 260 -46 260 89 0 110 -110 187 -201 141 l-34 -17 -122 124
-122 123 11 36 c22 72 -18 155 -89 184 -40 17 -69 17 -108 0z m123 -82 c12
-14 22 -38 22 -55 0 -42 -48 -89 -90 -89 -41 0 -90 47 -90 87 0 83 102 120
158 57z m320 -416 c-6 -17 -21 -13 -36 10 -15 23 -15 23 12 11 14 -7 25 -17
24 -21z m131 -24 c31 -26 41 -68 25 -109 -8 -20 -56 -45 -87 -45 -61 0 -101
74 -71 131 27 53 86 63 133 23z"/>
<path  d="M2213 10240 c-34 -14 -28 -21 7 -9 21 8 39 8 62 0 20 -7 28 -7 22 -1
-15 15 -66 21 -91 10z"/>
<path  d="M2664 9785 c-17 -13 -15 -13 18 -3 29 9 45 8 65 -1 26 -10 27 -10 9
4 -25 19 -66 19 -92 0z"/>
<path  d="M2650 10328 c-55 -28 -83 -75 -82 -134 2 -146 195 -198 272 -72 43
71 15 165 -60 205 -54 29 -74 29 -130 1z m121 -67 c58 -58 24 -151 -54 -151
-93 0 -128 122 -48 165 40 22 70 18 102 -14z"/>
<path  d="M2671 10239 c-35 -14 -20 -21 16 -7 24 9 38 9 60 0 26 -11 27 -11 9
3 -22 17 -50 18 -85 4z"/>
<path  d="M1650 10092 c0 -18 64 -82 81 -82 8 0 -3 14 -24 31 -20 16 -41 38
-47 47 -6 12 -9 13 -10 4z"/>
<path  d="M2125 10072 c9 -18 30 -42 48 -52 39 -24 115 -26 143 -4 18 14 18 15
-5 8 -69 -19 -141 2 -180 53 l-22 28 16 -33z"/>
<path  d="M2832 10079 c-48 -76 -180 -78 -237 -3 -8 10 -15 14 -15 8 0 -17 46
-63 75 -74 41 -16 97 -12 132 10 31 18 70 66 61 75 -2 2 -9 -5 -16 -16z"/>
<path  d="M1875 10048 c-32 -31 -35 -37 -15 -28 23 11 66 58 58 64 -1 2 -21
-15 -43 -36z"/>
<path  d="M2445 9922 c60 -61 112 -112 114 -112 9 0 -108 119 -186 190 -21 19
11 -16 72 -78z"/>
<path d="M2183 9880 c-46 -24 -83 -84 -83 -136 0 -68 75 -143 144 -144 40 0
107 34 131 68 28 38 27 121 -1 158 -52 70 -121 89 -191 54z m128 -69 c20 -20
29 -39 29 -61 0 -43 -47 -90 -90 -90 -43 0 -90 47 -90 90 0 43 47 90 90 90 22
0 41 -9 61 -29z"/>
<path  d="M2199 9779 l-24 -21 25 16 c13 9 36 16 50 16 14 0 37 -7 50 -16 l25
-16 -24 21 c-13 12 -36 21 -51 21 -15 0 -38 -9 -51 -21z"/>
<path  d="M2375 9641 c-3 -12 -23 -32 -43 -46 -64 -44 -153 -30 -202 32 l-22
28 19 -34 c49 -91 193 -93 247 -2 10 18 16 34 13 37 -3 3 -8 -4 -12 -15z"/>
<path  d="M1650 9642 c0 -21 52 -71 86 -82 20 -7 50 -10 67 -7 30 5 41 -4 157
-116 68 -67 115 -111 105 -97 -11 14 -66 71 -122 128 -100 100 -104 102 -148
102 -53 0 -95 19 -124 56 -12 15 -21 22 -21 16z"/>
<path  d="M2827 9624 c-49 -66 -151 -72 -214 -13 -30 28 -34 29 -21 9 53 -86
180 -92 238 -11 26 37 24 51 -3 15z"/>
<path  d="M1720 9432 c-110 -55 -107 -213 6 -263 59 -26 110 -19 159 24 128
112 -13 316 -165 239z m118 -58 c52 -36 48 -120 -8 -149 -41 -21 -64 -19 -99
11 -86 72 16 202 107 138z"/>
<path  d="M1763 9348 c-18 -4 -35 -13 -39 -19 -4 -8 0 -8 14 0 26 14 67 14 93
1 10 -6 19 -8 19 -6 0 16 -58 32 -87 24z"/>
<path  d="M2420 9230 c-10 -7 8 -10 60 -10 52 0 70 3 60 10 -8 5 -35 10 -60 10
-25 0 -52 -5 -60 -10z"/>
<path  d="M2110 9207 c0 -41 85 -107 138 -107 48 0 112 40 133 85 7 14 3 12
-13 -6 -69 -79 -184 -75 -238 7 -11 16 -20 25 -20 21z"/>
<path  d="M1650 9193 c0 -23 69 -82 104 -88 64 -12 131 17 157 68 10 20 8 19
-17 -4 -41 -37 -67 -49 -110 -49 -40 0 -95 29 -119 63 -8 12 -15 16 -15 10z"/>
<path  d="M2828 9175 c-22 -29 -77 -55 -118 -55 -37 0 -64 13 -104 49 l-30 26
16 -25 c54 -86 180 -91 239 -8 25 34 22 47 -3 13z"/>
<path fill="#ADA9C2" d="M2510 8950 c-35 -8 -49 -53 -29 -88 11 -21 24 -28 52 -30 32 -3 37 0
37 17 0 26 -8 27 -26 4 -12 -16 -15 -16 -24 -3 -18 27 -9 90 12 90 6 0 17 -8
24 -17 12 -17 13 -17 14 3 0 24 -22 33 -60 24z"/>
<path fill="#ADA9C2" d="M1070 8935 c-16 -19 -15 -71 1 -91 13 -16 75 -19 84 -4 4 6 4 18 1
27 -6 14 -9 13 -22 -5 -21 -30 -34 -19 -34 28 0 45 15 60 35 34 15 -21 31 -13
22 11 -8 20 -70 20 -87 0z"/>
<path fill="#ADA9C2" d="M1350 8931 c-14 -28 -13 -53 6 -79 17 -24 62 -30 82 -10 16 16 16 80
0 96 -20 20 -76 15 -88 -7z m60 -42 c0 -36 -4 -49 -12 -47 -14 5 -23 61 -14
84 12 31 26 11 26 -37z"/>
<path fill="#ADA9C2" d="M1636 8893 c1 -32 6 -59 12 -61 6 -2 8 12 5 37 -7 52 1 52 27 1 31
-61 50 -53 50 20 0 38 -4 60 -11 60 -7 0 -9 -11 -5 -30 3 -16 3 -30 1 -30 -2
0 -11 14 -20 30 -10 20 -23 30 -38 30 -20 0 -22 -4 -21 -57z"/>
<path fill="#ADA9C2" d="M1920 8900 c0 -27 0 -53 -1 -57 0 -4 4 -9 9 -11 6 -2 8 13 5 39 -7
49 6 47 31 -6 27 -56 46 -46 46 25 0 33 -4 60 -10 60 -5 0 -7 -13 -3 -30 3
-16 3 -30 0 -30 -4 0 -13 14 -22 30 -9 18 -23 30 -35 30 -17 0 -20 -7 -20 -50z"/>
<path fill="#ADA9C2" d="M2200 8890 c0 -53 2 -60 20 -60 16 0 20 7 20 31 0 27 2 30 15 19 11
-9 13 -16 5 -24 -16 -16 -12 -26 10 -26 13 0 20 7 20 20 0 11 -4 20 -10 20 -5
0 -10 9 -10 21 0 15 -5 19 -15 15 -10 -4 -15 1 -15 14 0 23 10 26 28 8 13 -13
27 -5 17 11 -3 6 -24 11 -46 11 l-39 0 0 -60z"/>
<path fill="#ADA9C2" d="M2740 8930 c0 -11 5 -20 10 -20 6 0 10 5 10 10 0 6 5 10 11 10 8 0
10 -17 7 -50 -5 -47 -4 -50 18 -50 22 0 24 4 24 53 0 36 3 47 10 37 11 -18 25
-7 17 15 -5 11 -21 15 -57 15 -43 0 -50 -3 -50 -20z"/>
<path fill="#ADA9C2" d="M3148 8925 c-3 -14 -2 -25 2 -25 4 0 11 -15 16 -32 7 -23 17 -34 32
-36 27 -4 27 -6 1 62 -23 60 -44 72 -51 31z"/>
<path fill="#ADA9C2" d="M3408 8890 c3 -51 7 -60 23 -60 17 0 19 8 19 60 0 56 -2 60 -22 60
-22 0 -23 -3 -20 -60z"/>
<path fill="#ADA9C2" d="M3122 8865 c-8 -16 -8 -26 -1 -31 13 -8 15 -5 23 29 8 34 -7 36 -22
2z"/>
<path  d="M1235 8860 c-4 -6 -3 -14 0 -20 9 -15 35 -12 35 4 0 17 -27 29 -35
16z"/>
<path  d="M1525 8860 c-4 -6 -3 -14 0 -20 9 -15 35 -12 35 4 0 17 -27 29 -35
16z"/>
<path  d="M1805 8861 c-8 -15 3 -31 21 -31 9 0 14 7 12 17 -4 20 -24 28 -33 14z"/>
<path  d="M2088 8864 c-11 -10 3 -34 19 -34 8 0 13 7 11 17 -3 18 -20 27 -30
17z"/>
<path  d="M2365 8860 c-4 -6 -3 -14 0 -20 9 -15 35 -12 35 4 0 17 -27 29 -35
16z"/>
<path  d="M2657 8863 c-14 -13 -6 -33 13 -33 11 0 20 4 20 9 0 13 -26 32 -33
24z"/>
<path  d="M3295 8860 c-4 -6 -3 -14 0 -20 9 -15 35 -12 35 4 0 17 -27 29 -35
16z"/>
</g>
</svg>
